<?xml version="1.0" encoding="utf-8" ?><svg xmlns="http://www.w3.org/2000/svg" xmlns:xlink="http://www.w3.org/1999/xlink" width="1024" height="1024" viewBox="0 0 1024 1024"><path fill="#0A0A14" d="M0 0L198.113 0L826.241 0L1024 0L1024 202.596L1024 821.813L1024 1024L826.291 1024L197.637 1024L0 1024L0 822.82L0 202.166L0 0Z"/><path fill="white" d="M826.241 0L1024 0L1024 202.596C1023.48 200.234 1023.12 196.385 1022.9 193.937C1013.99 98.0588 940.046 17.1176 844.333 2.45208C838.365 1.53763 832.219 1.04448 826.241 0Z"/><path fill="white" d="M0 0L198.113 0C185.421 2.14468 176.109 2.56974 163.2 5.77803C113.453 18.0106 69.7283 47.6468 39.9385 89.3235C21.9457 114.7 9.65022 143.665 3.89427 174.236C2.43411 182.019 1.38299 196.364 0 202.166L0 0Z"/><path fill="white" d="M826.291 1024C832.351 1022.62 844.097 1022 852.391 1020.33C884.756 1013.73 915.128 999.646 941.08 979.211C976.864 951.46 1003.69 911.881 1015.86 868.153C1020.07 853.057 1022.06 837.305 1024 821.813L1024 1024L826.291 1024Z"/><path fill="white" d="M0 822.82C1.83468 837.723 2.74061 846.989 6.38816 861.738C18.021 908.406 44.9642 949.828 82.9109 979.38C108.552 999.477 138.488 1013.38 170.386 1020C178.699 1021.71 191.333 1022.5 197.637 1024L0 1024L0 822.82Z"/><path fill="#7E6AE7" d="M404.946 394.467C405.419 396.576 405.264 410.256 405.265 413.433C405.229 427.699 405.267 441.965 405.378 456.231C389.746 464.694 372.676 472.458 356.634 480.103L291.193 511.843C295.731 514.567 302.51 517.609 307.381 519.965L336.554 533.936C359.527 544.931 381.837 556.271 405.065 567.156L405.207 629.472C401.403 627.98 393.57 623.798 389.655 621.869C380.339 617.288 370.998 612.755 361.635 608.27C316.667 586.741 271.821 564.959 227.099 542.925C226.503 524.1 227.23 500.451 227.167 481.019C254.568 468.031 281.828 454.748 308.943 441.173C341.03 425.783 373.032 410.214 404.946 394.467Z"/><path fill="#7E6AE7" d="M618.873 394.717C628.127 399.055 637.096 403.752 646.283 408.178L755.7 461.138C769.642 467.864 782.753 474.481 796.869 480.941C796.664 501.608 796.628 522.277 796.762 542.945C786.44 547.603 774.692 553.8 764.276 558.818L662.648 608.222C648.817 614.291 632.56 622.716 618.929 629.523L618.95 567.332L689.249 533.186C703.376 526.321 718.998 519.125 732.761 511.736C717.437 505.368 697.643 495.16 682.444 487.638C661.325 477.231 640.12 466.999 618.831 456.944L618.873 394.717Z"/><path fill="white" d="M557.469 319.469C573.144 319.503 589.278 319.352 604.915 319.714C599.235 333.508 594.134 349.082 589.083 363.272C580.419 386.965 571.898 410.71 563.522 434.506L501.45 606.748L466.013 704.869C463.46 705.141 454.081 704.86 450.906 704.847L419.036 704.796C429.618 673.801 441.952 641.398 453.061 610.442L513.192 442.802L539.095 371.385C545.248 354.529 552.176 336.536 557.469 319.469Z"/></svg>